<svg width="24" height="25" viewBox="0 0 24 25" fill="none" xmlns="http://www.w3.org/2000/svg">
<g clip-path="url(#clip0_917_24)">
<path d="M21.5089 6.86863L5.36947 3.51397C4.42168 3.31697 3.48789 3.92865 3.29071 4.87728L0.905885 16.3508C0.709375 17.2962 1.31796 18.2318 2.26919 18.4296L18.4086 21.7842C19.354 21.9807 20.2896 21.3721 20.4874 20.4209L22.8722 8.94739C23.0687 8.00197 22.4601 7.06635 21.5089 6.86863ZM21.0327 7.96659L11.6168 14.1418L5.37418 4.71188L21.0327 7.96659ZM2.10262 16.3517L4.38982 5.34787L8.77675 11.9746L2.10262 16.3517ZM2.74529 17.3316L9.42363 12.9517L10.9618 15.2752C11.1398 15.5442 11.5019 15.6187 11.7717 15.4417L14.0534 13.9453L18.4095 20.5875L2.74529 17.3316ZM19.3894 19.9448L15.0333 13.3026L21.6755 8.94648L19.3894 19.9448Z" fill="#233D4D" fill-opacity="0.8"/>
</g>
<defs>
<clipPath id="clip0_917_24">
<rect width="20" height="20" fill="white" transform="translate(4.13281 0.823242) rotate(11.742)"/>
</clipPath>
</defs>
</svg>
