<svg width="70" height="70" viewBox="0 0 70 70" fill="none" xmlns="http://www.w3.org/2000/svg">
<path d="M65.5109 30.9258L39.075 4.48989C37.9539 3.36333 36.4773 2.80005 35.0008 2.80005C33.5242 2.80005 32.0477 3.36333 30.9266 4.48989L25.6984 9.71802L32.168 16.1875C34.3172 14.9243 37.1172 15.1977 38.9602 17.0407C40.8031 18.8836 41.0711 21.6836 39.8078 23.8274L46.168 30.1875C48.3172 28.9243 51.1172 29.1977 52.9602 31.0407C55.1477 33.2282 55.1477 36.7719 52.9602 38.9594C50.7727 41.1469 47.2289 41.1469 45.0414 38.9594C43.1984 37.1165 42.925 34.3165 44.1883 32.1672L37.8281 25.8071C37.3742 26.075 36.8984 26.2719 36.4008 26.3977V43.5969C38.8125 44.2204 40.6008 46.3915 40.6008 49C40.6008 52.0954 38.0961 54.6 35.0008 54.6C31.9055 54.6 29.4008 52.0954 29.4008 49C29.4008 46.3915 31.1891 44.2204 33.6008 43.5969V26.3977C32.6656 26.1571 31.7742 25.6922 31.0414 24.9594C29.1984 23.1165 28.9305 20.3165 30.1937 18.1727L23.7187 11.6977L4.49062 30.9258C2.2375 33.1735 2.2375 36.8266 4.49062 39.0743L30.9266 65.5102C32.0477 66.6368 33.5242 67.2 35.0008 67.2C36.4773 67.2 37.9539 66.6368 39.075 65.5102L65.5109 39.0743C67.7641 36.8266 67.7641 33.1735 65.5109 30.9258Z" fill="#FE7F2D" fill-opacity="0.8"/>
</svg>
