<svg width="25" height="24" viewBox="0 0 25 24" fill="none" xmlns="http://www.w3.org/2000/svg">
<g clip-path="url(#clip0_917_20)">
<path d="M14.3676 2.39173C8.96193 1.26813 3.66337 4.75787 2.53493 10.1868C1.63238 14.529 3.67174 18.7958 7.29315 20.9057C7.76387 21.098 8.00563 20.8317 8.05982 20.571C8.1084 20.3372 8.2283 19.7174 8.39384 18.8964C5.54742 18.924 5.36955 16.8928 5.36955 16.8928C5.16137 15.6647 4.58168 15.2289 4.58168 15.2289C3.81863 14.4345 4.77191 14.6454 4.77191 14.6454C5.74015 14.9194 6.06048 15.9703 6.06048 15.9703C6.62218 17.6536 8.13067 17.5152 8.74114 17.3791C8.96128 16.7622 9.30467 16.3816 9.63606 16.1939C7.51415 15.4937 5.40329 14.1753 6.18602 10.4095C6.40911 9.3362 6.97334 8.53807 7.74291 7.98052C7.69297 7.71096 7.56547 6.64138 8.37893 5.39969C8.37893 5.39969 9.2563 5.30629 10.862 6.96656C11.6881 6.91101 12.5479 6.97608 13.3821 7.14565C14.212 7.32327 15.028 7.60522 15.7645 7.98683C17.8976 7.1037 18.6638 7.53874 18.6638 7.53874C18.9161 9.00322 18.3732 9.93218 18.2212 10.1598C18.7061 10.9781 18.9018 11.9342 18.6787 13.0075C17.894 16.783 15.4327 17.1383 13.2012 16.9285C13.4893 17.3051 13.678 17.9699 13.4874 18.8865C13.2142 20.2009 12.9817 21.2582 12.9148 21.5801C12.8601 21.8432 12.9727 22.1858 13.4897 22.1924C17.6461 21.6979 21.2141 18.5979 22.1164 14.2569C23.2448 8.82798 19.7758 3.51585 14.3676 2.39173Z" fill="#233D4D" fill-opacity="0.8"/>
</g>
<defs>
<clipPath id="clip0_917_20">
<rect width="20" height="20" fill="white" transform="translate(4.62109 0.15332) rotate(11.742)"/>
</clipPath>
</defs>
</svg>
