<svg width="70" height="70" viewBox="0 0 70 70" fill="none" xmlns="http://www.w3.org/2000/svg">
<g clip-path="url(#clip0_947_193)">
<path d="M34.9956 0.728516C15.6713 0.728516 0 16.461 0 35.8685C0 51.391 10.0275 64.5598 23.94 69.2104C25.69 69.5341 26.3288 68.4491 26.3288 67.5173C26.3288 66.6816 26.2981 64.4723 26.2806 61.541C16.5462 63.6629 14.49 56.8291 14.49 56.8291C12.9019 52.7691 10.605 51.6885 10.605 51.6885C7.42438 49.5098 10.8412 49.5535 10.8412 49.5535C14.3544 49.8029 16.2006 53.176 16.2006 53.176C19.3244 58.5441 24.395 56.9954 26.39 56.0941C26.705 53.8235 27.6106 52.2748 28.6125 51.3954C20.8425 50.5073 12.67 47.4929 12.67 34.031C12.67 30.1941 14.035 27.0573 16.275 24.5985C15.9119 23.7104 14.7131 20.136 16.6163 15.3016C16.6163 15.3016 19.5563 14.3566 26.2413 18.9023C29.0325 18.1235 32.025 17.7341 35.0044 17.721C37.975 17.7385 40.9719 18.1235 43.7675 18.9066C50.4481 14.361 53.3837 15.306 53.3837 15.306C55.2912 20.1448 54.0925 23.7148 53.7337 24.6029C55.9781 27.0616 57.33 30.1985 57.33 34.0354C57.33 47.5323 49.1487 50.5029 41.3525 51.3735C42.6081 52.4585 43.7281 54.6023 43.7281 57.8791C43.7281 62.5779 43.6844 66.3666 43.6844 67.5173C43.6844 68.4579 44.3144 69.5516 46.0906 69.206C59.9813 64.551 70 51.3866 70 35.8685C70 16.461 54.3288 0.728516 34.9956 0.728516Z" fill="#469E63" fill-opacity="0.8"/>
</g>
<defs>
<clipPath id="clip0_947_193">
<rect width="70" height="70" fill="white"/>
</clipPath>
</defs>
</svg>
