<svg width="70" height="70" viewBox="0 0 70 70" fill="none" xmlns="http://www.w3.org/2000/svg">
<g clip-path="url(#clip0_947_178)">
<path d="M4.40704 2.31728L8.95018 60.4386C9.01839 61.3113 9.60915 62.0556 10.4437 62.3202L34.3498 69.8995C34.7726 70.0335 35.2264 70.0335 35.6492 69.8995L59.5553 62.3202C60.3899 62.0556 60.9806 61.3113 61.0488 60.4386L65.592 2.31728C65.6897 1.0677 64.7021 0 63.4488 0H6.55035C5.29707 0 4.3095 1.0677 4.40704 2.31728ZM53.9414 20.3504H24.3329L25.2264 28.5903H53.2974L51.4611 52.0812L34.9996 57.3003L18.5381 52.0812L17.5787 39.8086H26.219V45.8285L35.2305 48.247L44.1881 45.8285L44.883 36.2345H17.2993L15.468 12.8052H54.531L53.9414 20.3504Z" fill="#469E63" fill-opacity="0.8"/>
</g>
<defs>
<clipPath id="clip0_947_178">
<rect width="70" height="70" fill="white"/>
</clipPath>
</defs>
</svg>
