<svg width="70" height="70" viewBox="0 0 70 70" fill="none" xmlns="http://www.w3.org/2000/svg">
<g clip-path="url(#clip0_947_184)">
<path d="M60.9056 18.0678C61.4717 18.0678 61.931 17.609 61.931 17.0424V12.7673C61.931 12.6204 61.9091 12.4901 61.8376 12.3326C61.7847 12.2183 61.7099 12.1104 61.6122 12.0175C59.2111 9.73436 51.4533 2.35848 49.1264 0.145872C48.8311 -0.134509 48.4759 -0.137179 48.4898 -0.133975C48.4231 -0.138782 50.115 -0.135577 12.2134 -0.136645C10.0141 -0.136645 8.20312 1.65031 8.20312 3.87413V65.8532C8.20312 68.0525 9.99062 69.8635 12.2134 69.8635H57.9202C60.1318 69.8635 61.9305 68.0642 61.9305 65.8532V20.8705C61.9305 20.3044 61.4717 19.8452 60.9051 19.8452C60.339 19.8452 59.8797 20.3044 59.8797 20.8705V48.9049H20.6478C20.0811 48.9049 19.6224 49.3642 19.6224 49.9303C19.6224 50.4969 20.0811 50.9557 20.6478 50.9557H59.8802V65.8532C59.8802 66.9336 59.0012 67.8127 57.9202 67.8127H12.2134C11.133 67.8127 10.2539 66.9336 10.2539 65.8532V50.9557H16.8196C17.3857 50.9557 17.845 50.4969 17.845 49.9303C17.845 49.3642 17.3857 48.9049 16.8196 48.9049H10.2539V8.68173H47.3945V9.77548C47.3945 11.987 49.1937 13.7863 51.4047 13.7863H59.8802V17.0424C59.8802 17.609 60.339 18.0678 60.9056 18.0678ZM10.2539 6.63148V3.87413C10.2539 2.79373 11.133 1.91467 12.2134 1.91467H47.3945V6.63148H10.2539ZM51.4047 11.7355C50.3243 11.7355 49.4453 10.8564 49.4453 9.77548V3.27866L58.3389 11.7355H51.4047Z" fill="#233D4D" fill-opacity="0.8"/>
<path d="M30.4845 64.0608C32.4029 64.0608 33.9586 62.5355 33.9586 60.6535V55.6563C33.9586 55.2061 33.5933 54.8408 33.1436 54.8408C32.6934 54.8408 32.3281 55.2061 32.3281 55.6563V60.6535C32.3281 62.7561 29.3245 63.2341 28.7211 61.1513C28.6228 60.8127 28.3109 60.5649 27.9408 60.5649C27.3971 60.5649 27.0083 61.0946 27.1632 61.6137C27.5921 63.0514 28.9219 64.0608 30.4845 64.0608Z" fill="#233D4D" fill-opacity="0.8"/>
<path d="M39.3842 62.4977C38.4913 62.4977 37.6149 62.1666 36.8384 61.7724C36.3145 61.5054 35.6934 61.8889 35.6934 62.4758C35.6934 62.7722 35.8568 63.0307 36.0987 63.1658C39.1428 64.855 43.0052 64.0582 43.0052 61.335C43.0052 59.3174 41.0275 58.9029 39.3303 58.5958C38.2061 58.3924 37.4467 58.2882 37.4429 57.548C37.4403 56.9253 37.9813 56.2706 39.3437 56.2706C40.2548 56.2706 41.0532 56.5632 41.7571 56.9435C42.2724 57.2239 42.9144 56.8521 42.9144 56.2535C42.9144 55.9539 42.7467 55.6932 42.4994 55.5613C38.8849 53.6339 35.8167 55.2345 35.8125 57.6158C35.8066 61.201 41.3661 59.6554 41.3811 61.3874C41.3891 62.3236 40.0251 62.4977 39.3842 62.4977Z" fill="#233D4D" fill-opacity="0.8"/>
</g>
<defs>
<clipPath id="clip0_947_184">
<rect width="70" height="70" fill="white"/>
</clipPath>
</defs>
</svg>
