<svg width="25" height="25" viewBox="0 0 25 25" fill="none" xmlns="http://www.w3.org/2000/svg">
<g clip-path="url(#clip0_917_28)">
<path d="M14.3884 2.84951C8.98195 1.72575 3.68636 5.19874 2.5626 10.6052C1.43885 16.0116 4.91184 21.3072 10.3183 22.431C15.7247 23.5547 21.0203 20.0817 22.1441 14.6753C23.2678 9.26885 19.7948 3.97326 14.3884 2.84951ZM8.46689 17.059L6.0824 16.5634L7.57351 9.38957L9.958 9.8852L8.46689 17.059ZM8.96944 8.65782L8.9539 8.65459C8.15374 8.48827 7.75073 7.82989 7.89382 7.14147C8.04014 6.43753 8.6848 6.0128 9.5005 6.18235C10.3162 6.3519 10.7068 6.99181 10.5761 7.69899C10.433 8.3874 9.80097 8.83065 8.96944 8.65782ZM17.0649 18.8461L14.6807 18.3506L15.4784 14.5127C15.6789 13.5483 15.4703 12.8187 14.6076 12.6394C13.9489 12.5025 13.4643 12.8646 13.2029 13.2571C13.108 13.3973 13.0481 13.6083 13.0035 13.8227L12.1708 17.8289L9.7865 17.3333C9.7865 17.3333 11.1689 10.839 11.2776 10.1595L13.6619 10.6551L13.4508 11.6708C13.8693 11.2479 14.5808 10.6704 15.8458 10.9334C17.4146 11.2595 18.3779 12.5293 17.9199 14.7327L17.0649 18.8461Z" fill="#233D4D" fill-opacity="0.8"/>
</g>
<defs>
<clipPath id="clip0_917_28">
<rect width="20" height="20" fill="white" transform="translate(4.59766 0.814453) rotate(11.742)"/>
</clipPath>
</defs>
</svg>
